<svg width="51" height="54" viewBox="0 0 51 54" fill="none" xmlns="http://www.w3.org/2000/svg">
<path d="M46.2637 15.7481C32.6737 4.38796 25.6181 0 25.6181 0C25.6181 0 17.5573 4.9061 4.96636 15.735C-2.51829 22.1759 -0.734482 31.6995 4.97249 37.7928C5.80003 38.6782 6.70726 39.4194 7.66353 40.0425C10.1155 48.1428 17.2201 54 25.6181 54C34.0161 54 41.1085 48.1494 43.5666 40.0622C44.529 39.4325 45.4423 38.6914 46.276 37.7994C51.9768 31.7126 53.1477 21.1789 46.2699 15.7415L46.2637 15.7481ZM30.6263 45.8538C30.0807 48.3134 28.0211 50.1565 25.5507 50.1565C23.0803 50.1565 21.0145 48.3134 20.4751 45.8472H20.469C20.469 45.8472 20.5241 45.7751 20.5854 45.6898C20.6284 45.6308 20.6958 45.5455 20.7632 45.4668C20.7939 45.434 20.8123 45.4078 20.8429 45.3684C20.9226 45.27 21.0268 45.1585 21.131 45.0405C21.1678 45.0011 21.1923 44.9683 21.2291 44.9224C21.3517 44.7846 21.4927 44.6469 21.6337 44.5026C21.6582 44.4764 21.6827 44.4502 21.7072 44.4239C21.8482 44.2862 22.0015 44.155 22.1547 44.0304C22.1915 43.9976 22.2221 43.9648 22.2589 43.9385C22.4183 43.8074 22.5899 43.6959 22.7616 43.5844C22.7983 43.5647 22.829 43.5319 22.8658 43.5122C23.0313 43.4138 23.1968 43.3417 23.3562 43.2761C23.3991 43.2564 23.442 43.2302 23.491 43.2105C23.6994 43.1384 23.9079 43.099 24.1163 43.099C24.6557 43.099 25.3545 43.4925 25.52 44.2927C25.6855 43.4925 26.3844 43.099 26.9238 43.099C27.1261 43.099 27.3406 43.1384 27.5491 43.2105C27.5858 43.2236 27.6226 43.2498 27.6655 43.263C27.8372 43.3286 28.0149 43.4073 28.1866 43.5122C28.1988 43.5122 28.205 43.5253 28.2111 43.5319C28.4072 43.6499 28.6034 43.7877 28.7934 43.9385C28.8118 43.9517 28.8241 43.9648 28.8363 43.9779C29.0141 44.1222 29.1919 44.273 29.3513 44.4305C29.388 44.4633 29.4187 44.5026 29.4555 44.5354C29.5903 44.6666 29.7252 44.8043 29.8416 44.929C29.8662 44.9552 29.8784 44.9749 29.9029 45.0011C30.2707 45.4077 30.5221 45.7226 30.5895 45.8144C30.5956 45.821 30.6201 45.8472 30.6201 45.8538H30.6263Z" fill="url(#paint0_linear_48_33)"/>
<defs>
<linearGradient id="paint0_linear_48_33" x1="0" y1="27" x2="107.5" y2="54" gradientUnits="userSpaceOnUse">
<stop stop-color="#BC0123"/>
<stop offset="1" stop-color="#550A16"/>
</linearGradient>
</defs>
</svg>
